<svg width="512" height="512" viewBox="0 0 512 512" xmlns="http://www.w3.org/2000/svg">
  <defs>
    <linearGradient id="lightningGradient" x1="0%" y1="0%" x2="100%" y2="100%">
      <stop offset="0%" style="stop-color:#87CEEB;stop-opacity:1" />
      <stop offset="50%" style="stop-color:#4A90E2;stop-opacity:1" />
      <stop offset="100%" style="stop-color:#2E5BBA;stop-opacity:1" />
    </linearGradient>
    <linearGradient id="circleGradient" x1="0%" y1="0%" x2="100%" y2="100%">
      <stop offset="0%" style="stop-color:#87CEEB;stop-opacity:1" />
      <stop offset="100%" style="stop-color:#4A90E2;stop-opacity:1" />
    </linearGradient>
  </defs>
  
  <!-- Background with rounded corners -->
  <rect width="512" height="512" rx="80" ry="80" fill="#1a1a1a"/>
  
  <!-- Energy sparks around the circle -->
  <g stroke="#4A90E2" stroke-width="3" fill="none" opacity="0.7">
    <!-- Top sparks -->
    <path d="M380 80 L420 60 L400 90 L440 70"/>
    <path d="M420 100 L460 85 L440 115 L480 100"/>
    <path d="M450 130 L490 115 L470 145 L510 130"/>
    
    <!-- Right sparks -->
    <path d="M430 380 L450 420 L420 400 L440 440"/>
    <path d="M410 420 L425 460 L395 440 L410 480"/>
    
    <!-- Left sparks -->
    <path d="M80 130 L60 90 L90 110 L70 70"/>
    <path d="M100 100 L85 60 L115 80 L100 40"/>
    
    <!-- Bottom sparks -->
    <path d="M130 430 L90 450 L110 420 L70 440"/>
    <path d="M160 450 L120 470 L140 440 L100 460"/>
  </g>
  
  <!-- Main circle -->
  <circle cx="256" cy="256" r="180" stroke="url(#circleGradient)" stroke-width="12" fill="none"/>
  
  <!-- Lightning bolt -->
  <path d="M220 120 L340 120 L280 256 L320 256 L200 392 L260 256 L220 256 Z" 
        fill="url(#lightningGradient)" 
        stroke="#87CEEB" 
        stroke-width="2"/>
  
  <!-- Inner glow effect -->
  <circle cx="256" cy="256" r="170" stroke="#4A90E2" stroke-width="2" fill="none" opacity="0.5"/>
</svg>
